<svg width="72" height="72" viewBox="0 0 72 72" fill="none" xmlns="http://www.w3.org/2000/svg">
<path d="M45.3943 54.6826L45.4825 54.7556C43.502 57.2746 40.4324 58.89 36.9825 58.89C33.5327 58.89 30.463 57.2746 28.4825 54.7556L28.5708 54.6826C29.6751 52.8603 31.6738 51.6708 33.919 51.6708L36.9825 50.7764L40.0461 51.6708C42.2912 51.6708 44.29 52.8603 45.3943 54.6826Z" fill="#D1522E"/>
<path d="M36.8183 40.9775C38.9083 40.9775 40.6059 42.6721 40.6059 44.7651C40.6059 46.8582 38.9083 48.5527 36.8183 48.5527C34.7253 48.5527 33.0277 46.8582 33.0277 44.7651C33.0277 42.6721 34.7253 40.9775 36.8183 40.9775Z" fill="#D1522E"/>
<path d="M59.3339 15.2612H49.4102V5.3374L59.3339 15.2612Z" fill="#D3DDE9"/>
<path fill-rule="evenodd" clip-rule="evenodd" d="M8.88757 26.8861C8.88757 26.6761 9.05782 26.5059 9.26782 26.5059H22.8696C23.0122 26.5059 23.1428 26.5856 23.2079 26.7124L26.2657 32.6664H62.732C62.942 32.6664 63.1123 32.8366 63.1123 33.0466V62.3038C63.1123 62.5138 62.942 62.684 62.732 62.684H9.26782C9.05782 62.684 8.88757 62.5138 8.88757 62.3038V26.8861ZM9.64807 27.2664V61.9235H62.3518V33.4269H26.0336C25.891 33.4269 25.7604 33.3472 25.6953 33.2203L22.6375 27.2664H9.64807Z" fill="#020617"/>
<path fill-rule="evenodd" clip-rule="evenodd" d="M19.4198 5.33777C19.4198 5.12776 19.59 4.95752 19.8 4.95752H49.4101C49.511 4.95752 49.6077 4.99758 49.679 5.06889L59.6027 14.9927C59.6741 15.064 59.7141 15.1607 59.7141 15.2615V33.0464C59.7141 33.2564 59.5439 33.4267 59.3339 33.4267C59.1239 33.4267 58.9536 33.2564 58.9536 33.0464V15.419L49.2526 5.71802H20.1803V26.8859C20.1803 27.0959 20.0101 27.2662 19.8 27.2662C19.59 27.2662 19.4198 27.0959 19.4198 26.8859V5.33777Z" fill="#020617"/>
<path fill-rule="evenodd" clip-rule="evenodd" d="M49.41 4.95752C49.62 4.95752 49.7903 5.12776 49.7903 5.33777V14.8813H59.3338C59.5438 14.8813 59.714 15.0515 59.714 15.2615C59.714 15.4715 59.5438 15.6418 59.3338 15.6418H49.41C49.2 15.6418 49.0298 15.4715 49.0298 15.2615V5.33777C49.0298 5.12776 49.2 4.95752 49.41 4.95752Z" fill="#020617"/>
<path fill-rule="evenodd" clip-rule="evenodd" d="M12.1945 10.7255C12.1945 10.5155 12.3647 10.3452 12.5747 10.3452H19.8C20.01 10.3452 20.1803 10.5155 20.1803 10.7255C20.1803 10.9355 20.01 11.1057 19.8 11.1057H12.955V26.8858C12.955 27.0958 12.7847 27.2661 12.5747 27.2661C12.3647 27.2661 12.1945 27.0958 12.1945 26.8858V10.7255Z" fill="#020617"/>
<path fill-rule="evenodd" clip-rule="evenodd" d="M36.8759 50.4117C36.9455 50.3914 37.0195 50.3914 37.0891 50.4117L40.1012 51.2911C42.4606 51.3104 44.5572 52.568 45.7195 54.4859C45.8283 54.6655 45.771 54.8993 45.5914 55.0082C45.4118 55.117 45.1779 55.0596 45.0691 54.88C44.0317 53.1682 42.1545 52.0514 40.046 52.0514C40.01 52.0514 39.9741 52.0463 39.9395 52.0362L36.9825 51.1729L34.0255 52.0362C33.9909 52.0463 33.955 52.0514 33.919 52.0514C31.8105 52.0514 29.9333 53.1682 28.8959 54.88C28.7871 55.0596 28.5533 55.117 28.3737 55.0082C28.1941 54.8993 28.1367 54.6655 28.2455 54.4859C29.4078 52.568 31.5044 51.3104 33.8638 51.2911L36.8759 50.4117Z" fill="#020617"/>
<path fill-rule="evenodd" clip-rule="evenodd" d="M36.8183 41.3577C34.9349 41.3577 33.408 42.8823 33.408 44.765C33.408 46.6477 34.9349 48.1723 36.8183 48.1723C38.6985 48.1723 40.2257 46.6478 40.2257 44.765C40.2257 42.8821 38.6985 41.3577 36.8183 41.3577ZM32.6475 44.765C32.6475 42.4615 34.5157 40.5972 36.8183 40.5972C39.1182 40.5972 40.9862 42.4617 40.9862 44.765C40.9862 47.0683 39.1182 48.9328 36.8183 48.9328C34.5157 48.9328 32.6475 47.0685 32.6475 44.765Z" fill="#020617"/>
<path fill-rule="evenodd" clip-rule="evenodd" d="M36.9825 37.6643C31.2267 37.6643 26.5598 42.3312 26.5598 48.087C26.5598 50.5146 27.3901 52.7476 28.7815 54.5206C30.693 56.9519 33.6543 58.5097 36.9825 58.5097C40.3108 58.5097 43.2721 56.9519 45.1836 54.5206C46.5749 52.7476 47.4053 50.5146 47.4053 48.087C47.4053 42.3312 42.7383 37.6643 36.9825 37.6643ZM25.7993 48.087C25.7993 41.9112 30.8067 36.9038 36.9825 36.9038C43.1584 36.9038 48.1658 41.9112 48.1658 48.087C48.1658 50.6912 47.2743 53.0884 45.7817 54.9904L45.7815 54.9906C43.732 57.5973 40.5541 59.2702 36.9825 59.2702C33.411 59.2702 30.233 57.5973 28.1836 54.9906L28.1834 54.9904C26.6908 53.0884 25.7993 50.6912 25.7993 48.087Z" fill="#020617"/>
<path fill-rule="evenodd" clip-rule="evenodd" d="M26.2892 13.0922C26.2892 12.8822 26.4594 12.7119 26.6694 12.7119H36.6054C36.8154 12.7119 36.9857 12.8822 36.9857 13.0922C36.9857 13.3022 36.8154 13.4724 36.6054 13.4724H26.6694C26.4594 13.4724 26.2892 13.3022 26.2892 13.0922Z" fill="#020617"/>
<path fill-rule="evenodd" clip-rule="evenodd" d="M26.2892 15.8485C26.2892 15.6385 26.4594 15.4683 26.6694 15.4683H46.9642C47.1742 15.4683 47.3444 15.6385 47.3444 15.8485C47.3444 16.0585 47.1742 16.2288 46.9642 16.2288H26.6694C26.4594 16.2288 26.2892 16.0585 26.2892 15.8485Z" fill="#020617"/>
<path fill-rule="evenodd" clip-rule="evenodd" d="M26.2892 18.6078C26.2892 18.3978 26.4594 18.2275 26.6694 18.2275H46.9642C47.1742 18.2275 47.3444 18.3978 47.3444 18.6078C47.3444 18.8178 47.1742 18.988 46.9642 18.988H26.6694C26.4594 18.988 26.2892 18.8178 26.2892 18.6078Z" fill="#020617"/>
<path fill-rule="evenodd" clip-rule="evenodd" d="M26.2892 21.3676C26.2892 21.1575 26.4594 20.9873 26.6694 20.9873H46.9642C47.1742 20.9873 47.3444 21.1575 47.3444 21.3676C47.3444 21.5776 47.1742 21.7478 46.9642 21.7478H26.6694C26.4594 21.7478 26.2892 21.5776 26.2892 21.3676Z" fill="#020617"/>
<path fill-rule="evenodd" clip-rule="evenodd" d="M26.2892 24.1268C26.2892 23.9168 26.4594 23.7466 26.6694 23.7466H46.9642C47.1742 23.7466 47.3444 23.9168 47.3444 24.1268C47.3444 24.3368 47.1742 24.5071 46.9642 24.5071H26.6694C26.4594 24.5071 26.2892 24.3368 26.2892 24.1268Z" fill="#020617"/>
<path fill-rule="evenodd" clip-rule="evenodd" d="M26.2892 26.8856C26.2892 26.6756 26.4594 26.5054 26.6694 26.5054H46.9642C47.1742 26.5054 47.3444 26.6756 47.3444 26.8856C47.3444 27.0956 47.1742 27.2659 46.9642 27.2659H26.6694C26.4594 27.2659 26.2892 27.0956 26.2892 26.8856Z" fill="#020617"/>
</svg>
