<svg width="72" height="72" viewBox="0 0 72 72" fill="none" xmlns="http://www.w3.org/2000/svg">
<path d="M63.2758 25.6424V32.9499C63.2758 33.6831 62.6825 34.2793 61.9494 34.2793H49.3271C48.594 34.2793 47.9977 33.6831 47.9977 32.9499V25.6424C47.9977 24.9093 48.594 24.313 49.3271 24.313H61.9494C62.6825 24.313 63.2758 24.9093 63.2758 25.6424ZM56.9997 32.019L56.2756 29.1288C56.7046 28.9007 56.9997 28.4535 56.9997 27.9363C56.9997 27.1849 56.3882 26.5734 55.6367 26.5734C54.8853 26.5734 54.2769 27.1849 54.2769 27.9363C54.2769 28.4535 54.5719 28.9007 54.9979 29.1288L54.2769 32.019H56.9997Z" fill="#D3DDE9"/>
<path d="M25.9415 45.6114C24.1923 47.5433 21.6611 48.7571 18.8471 48.7571C16.033 48.7571 13.5018 47.5433 11.7526 45.6114C12.3032 43.491 14.2259 41.9729 16.4619 41.9729L18.8471 41.2793L21.2322 41.9729C23.4682 41.9729 25.3909 43.491 25.9415 45.6114Z" fill="#D1522E"/>
<path d="M18.7162 33.6494C20.3469 33.6494 21.6672 34.9697 21.6672 36.5973C21.6672 38.228 20.3469 39.5483 18.7162 39.5483C17.0886 39.5483 15.7683 38.228 15.7683 36.5973C15.7683 34.9697 17.0886 33.6494 18.7162 33.6494Z" fill="#D1522E"/>
<path fill-rule="evenodd" clip-rule="evenodd" d="M5.84156 24.8821C5.66735 24.8821 5.5221 25.0261 5.5221 25.2046V56.9229C5.5221 57.0993 5.6652 57.2424 5.84156 57.2424H58.9833C59.1618 57.2424 59.3058 57.0971 59.3058 56.9229V40.1115C59.3058 39.9015 59.476 39.7313 59.686 39.7313C59.896 39.7313 60.0663 39.9015 60.0663 40.1115V56.9229C60.0663 57.5214 59.5775 58.0029 58.9833 58.0029H5.84156C5.24519 58.0029 4.7616 57.5193 4.7616 56.9229V25.2046C4.7616 24.6104 5.24305 24.1216 5.84156 24.1216H43.188C43.398 24.1216 43.5683 24.2918 43.5683 24.5018C43.5683 24.7118 43.398 24.8821 43.188 24.8821H5.84156Z" fill="#020617"/>
<path fill-rule="evenodd" clip-rule="evenodd" d="M8.32092 20.0345C8.3258 20.0305 8.33263 20.0255 8.34199 20.0195C8.39401 19.9865 8.48962 19.9534 8.61605 19.9534H43.188C43.398 19.9534 43.5682 19.7831 43.5682 19.5731C43.5682 19.3631 43.398 19.1929 43.188 19.1929H8.61605C8.36828 19.1929 8.1262 19.2556 7.93409 19.3777C7.74617 19.4971 7.56042 19.7086 7.56042 20.0021V24.5958C7.56042 24.8059 7.73067 24.9761 7.94067 24.9761C8.15068 24.9761 8.32092 24.8059 8.32092 24.5958V20.0345ZM8.31009 20.0455C8.30995 20.0454 8.31055 20.0444 8.3123 20.0425C8.3111 20.0445 8.31023 20.0455 8.31009 20.0455Z" fill="#020617"/>
<path fill-rule="evenodd" clip-rule="evenodd" d="M13.5171 15.3463C13.5223 15.3419 13.5298 15.3363 13.5403 15.3295C13.5934 15.2955 13.689 15.2625 13.8122 15.2625H43.188C43.398 15.2625 43.5683 15.0922 43.5683 14.8822C43.5683 14.6722 43.398 14.502 43.188 14.502H13.8122C13.5643 14.502 13.3222 14.5662 13.1304 14.6889C12.9438 14.8083 12.7566 15.0202 12.7566 15.3142V19.5733C12.7566 19.7833 12.9268 19.9536 13.1368 19.9536C13.3468 19.9536 13.5171 19.7833 13.5171 19.5733V15.3463ZM13.5066 15.3572C13.5065 15.3572 13.5071 15.3561 13.5089 15.3541C13.5077 15.3563 13.5068 15.3573 13.5066 15.3572Z" fill="#020617"/>
<path fill-rule="evenodd" clip-rule="evenodd" d="M9.78125 61.7875C9.78125 61.5775 9.95149 61.4072 10.1615 61.4072H55.6368C55.8468 61.4072 56.0171 61.5775 56.0171 61.7875C56.0171 61.9975 55.8468 62.1677 55.6368 62.1677H10.1615C9.95149 62.1677 9.78125 61.9975 9.78125 61.7875Z" fill="#020617"/>
<path fill-rule="evenodd" clip-rule="evenodd" d="M18.741 40.9145C18.8103 40.8944 18.884 40.8944 18.9533 40.9145L21.2874 41.5933C23.6747 41.6181 25.7204 43.2472 26.3097 45.5162C26.3625 45.7195 26.2405 45.9271 26.0372 45.9798C25.8339 46.0326 25.6264 45.9106 25.5736 45.7074C25.0661 43.753 23.2935 42.3535 21.2323 42.3535C21.1963 42.3535 21.1606 42.3484 21.1261 42.3384L18.8471 41.6757L16.5682 42.3384C16.5337 42.3484 16.498 42.3535 16.462 42.3535C14.4008 42.3535 12.6282 43.753 12.1207 45.7074C12.0679 45.9106 11.8603 46.0326 11.6571 45.9798C11.4538 45.9271 11.3318 45.7195 11.3846 45.5162C11.9739 43.2472 14.0196 41.6181 16.4069 41.5933L18.741 40.9145Z" fill="#020617"/>
<path fill-rule="evenodd" clip-rule="evenodd" d="M18.7162 34.03C17.2986 34.03 16.1486 35.1801 16.1486 36.5977C16.1486 38.0186 17.2989 39.1684 18.7162 39.1684C20.1369 39.1684 21.287 38.0183 21.287 36.5977C21.287 35.1804 20.1371 34.03 18.7162 34.03ZM15.3881 36.5977C15.3881 34.7601 16.8786 33.2695 18.7162 33.2695C20.5566 33.2695 22.0475 34.7599 22.0475 36.5977C22.0475 38.4384 20.5569 39.9289 18.7162 39.9289C16.8784 39.9289 15.3881 38.4381 15.3881 36.5977Z" fill="#020617"/>
<path fill-rule="evenodd" clip-rule="evenodd" d="M18.8471 29.9929C13.7697 29.9929 9.65344 34.1092 9.65344 39.1866C9.65344 41.562 10.5529 43.726 12.034 45.3561L12.0345 45.3565C13.7146 47.212 16.1447 48.3772 18.8471 48.3772C21.5495 48.3772 23.9796 47.212 25.6597 45.3565L25.6602 45.3561C27.1413 43.726 28.0408 41.562 28.0408 39.1866C28.0408 34.1092 23.9245 29.9929 18.8471 29.9929ZM8.89294 39.1866C8.89294 33.6892 13.3497 29.2324 18.8471 29.2324C24.3445 29.2324 28.8013 33.6892 28.8013 39.1866C28.8013 41.7577 27.8268 44.1022 26.2232 45.8672C24.4048 47.8753 21.7727 49.1377 18.8471 49.1377C15.9215 49.1377 13.2894 47.8753 11.4709 45.8672C9.86737 44.1022 8.89294 41.7577 8.89294 39.1866Z" fill="#020617"/>
<path fill-rule="evenodd" clip-rule="evenodd" d="M42.8077 12.9716C42.8077 12.7616 42.978 12.5913 43.188 12.5913H67.3311C67.5412 12.5913 67.7114 12.7616 67.7114 12.9716V27.2518C67.7114 31.7756 65.5629 36.11 61.9671 38.85C61.967 38.85 61.967 38.85 61.9669 38.8501L59.9166 40.4137L59.9164 40.4138L55.4899 43.7846C55.3538 43.8883 55.1652 43.8883 55.0291 43.7846L48.5522 38.8501C44.9563 36.1102 42.8077 31.7757 42.8077 27.2518V12.9716ZM43.5682 13.3518V27.2518C43.5682 31.5382 45.6058 35.649 49.0131 38.2451C49.0131 38.2451 49.0131 38.2451 49.0131 38.2451L55.2596 43.0041L59.4554 39.809L59.4556 39.8088L61.506 38.2452C64.9133 35.649 66.9509 31.5382 66.9509 27.2518V13.3518H43.5682Z" fill="#020617"/>
<path fill-rule="evenodd" clip-rule="evenodd" d="M55.6369 17.3889C53.0967 17.3889 51.037 19.4486 51.037 21.9888V24.3131C51.037 24.5231 50.8667 24.6933 50.6567 24.6933C50.4467 24.6933 50.2765 24.5231 50.2765 24.3131V21.9888C50.2765 19.0286 52.6767 16.6284 55.6369 16.6284C57.1195 16.6284 58.4594 17.2278 59.4286 18.2C60.4008 19.1691 61.0003 20.5091 61.0003 21.9888V24.3131C61.0003 24.5231 60.8301 24.6933 60.6201 24.6933C60.41 24.6933 60.2398 24.5231 60.2398 24.3131V21.9888C60.2398 20.7186 59.726 19.5701 58.8914 18.7383L58.8904 18.7374C58.0587 17.9028 56.9103 17.3889 55.6369 17.3889Z" fill="#020617"/>
<path fill-rule="evenodd" clip-rule="evenodd" d="M49.3273 24.6931C48.8041 24.6931 48.3781 25.1192 48.3781 25.6423V32.9498C48.3781 33.4729 48.8041 33.899 49.3273 33.899H61.9495C62.4715 33.899 62.8956 33.4741 62.8956 32.9498V25.6423C62.8956 25.118 62.4715 24.6931 61.9495 24.6931H49.3273ZM47.6176 25.6423C47.6176 24.6991 48.3841 23.9326 49.3273 23.9326H61.9495C62.8938 23.9326 63.6561 24.7003 63.6561 25.6423V32.9498C63.6561 33.8918 62.8938 34.6595 61.9495 34.6595H49.3273C48.3841 34.6595 47.6176 33.893 47.6176 32.9498V25.6423Z" fill="#020617"/>
<path fill-rule="evenodd" clip-rule="evenodd" d="M53.8967 27.9365C53.8967 26.9762 54.6743 26.1934 55.6369 26.1934C56.5983 26.1934 57.38 26.9751 57.38 27.9365C57.38 28.4929 57.1149 28.9832 56.7102 29.2987L57.3686 31.9268C57.3971 32.0404 57.3716 32.1608 57.2996 32.2531C57.2275 32.3455 57.1169 32.3995 56.9998 32.3995H54.277C54.1599 32.3995 54.0494 32.3455 53.9773 32.2533C53.9053 32.161 53.8797 32.0407 53.908 31.9272L54.5639 29.2981C54.1616 28.9825 53.8967 28.4926 53.8967 27.9365ZM55.6369 26.9539C55.0965 26.9539 54.6572 27.394 54.6572 27.9365C54.6572 28.3046 54.8672 28.6276 55.1776 28.7939C55.3311 28.8761 55.4091 29.0522 55.3669 29.2211L54.7637 31.639H56.5125L55.9069 29.2215C55.8644 29.052 55.9429 28.8754 56.0972 28.7934C56.41 28.627 56.6195 28.3043 56.6195 27.9365C56.6195 27.3951 56.1783 26.9539 55.6369 26.9539Z" fill="#020617"/>
<path fill-rule="evenodd" clip-rule="evenodd" d="M32.6619 32.9501C32.6619 32.7401 32.8321 32.5698 33.0421 32.5698H39.7959C40.0059 32.5698 40.1762 32.7401 40.1762 32.9501C40.1762 33.1601 40.0059 33.3303 39.7959 33.3303H33.0421C32.8321 33.3303 32.6619 33.1601 32.6619 32.9501Z" fill="#020617"/>
<path fill-rule="evenodd" clip-rule="evenodd" d="M32.6619 35.7094C32.6619 35.4993 32.8321 35.3291 33.0421 35.3291H43.1879C43.3979 35.3291 43.5682 35.4993 43.5682 35.7094C43.5682 35.9194 43.3979 36.0896 43.1879 36.0896H33.0421C32.8321 36.0896 32.6619 35.9194 32.6619 35.7094Z" fill="#020617"/>
<path fill-rule="evenodd" clip-rule="evenodd" d="M32.6619 38.4686C32.6619 38.2586 32.8321 38.0884 33.0421 38.0884H44.6421C44.8521 38.0884 45.0224 38.2586 45.0224 38.4686C45.0224 38.6786 44.8521 38.8489 44.6421 38.8489H33.0421C32.8321 38.8489 32.6619 38.6786 32.6619 38.4686Z" fill="#020617"/>
<path fill-rule="evenodd" clip-rule="evenodd" d="M32.6619 41.2279C32.6619 41.0179 32.8321 40.8477 33.0421 40.8477H46.5709C46.7809 40.8477 46.9512 41.0179 46.9512 41.2279C46.9512 41.4379 46.7809 41.6082 46.5709 41.6082H33.0421C32.8321 41.6082 32.6619 41.4379 32.6619 41.2279Z" fill="#020617"/>
<path fill-rule="evenodd" clip-rule="evenodd" d="M32.6619 43.9872C32.6619 43.7772 32.8321 43.6069 33.0421 43.6069H49.3332C49.5432 43.6069 49.7135 43.7772 49.7135 43.9872C49.7135 44.1972 49.5432 44.3674 49.3332 44.3674H33.0421C32.8321 44.3674 32.6619 44.1972 32.6619 43.9872Z" fill="#020617"/>
<path fill-rule="evenodd" clip-rule="evenodd" d="M32.6619 46.7465C32.6619 46.5365 32.8321 46.3662 33.0421 46.3662H53.3368C53.5468 46.3662 53.7171 46.5365 53.7171 46.7465C53.7171 46.9565 53.5468 47.1267 53.3368 47.1267H33.0421C32.8321 47.1267 32.6619 46.9565 32.6619 46.7465Z" fill="#020617"/>
</svg>
