<svg width="72" height="72" viewBox="0 0 72 72" fill="none" xmlns="http://www.w3.org/2000/svg">
<path d="M36.2312 29.3467C39.9214 29.3467 42.9119 32.3372 42.9119 36.0244C42.9119 39.7146 39.9214 42.7051 36.2312 42.7051C32.544 42.7051 29.5535 39.7146 29.5535 36.0244C29.5535 32.3372 32.544 29.3467 36.2312 29.3467Z" fill="#D1522E"/>
<path fill-rule="evenodd" clip-rule="evenodd" d="M36.2312 4.42188C36.3759 4.42187 36.5081 4.50405 36.5722 4.63386L37.6337 6.78498L40.0066 7.13039C40.1498 7.15123 40.2687 7.25153 40.3134 7.38915C40.3582 7.52676 40.3209 7.67783 40.2173 7.77887L38.5015 9.45259L38.9059 11.8173C38.9303 11.96 38.8716 12.1041 38.7544 12.1891C38.6373 12.2742 38.482 12.2853 38.3539 12.2179L36.2312 11.1003L34.1084 12.2179C33.9802 12.2853 33.8249 12.2741 33.7077 12.189C33.5906 12.1039 33.5319 11.9596 33.5565 11.8169L33.9636 9.45259L32.2452 7.77909C32.1415 7.67809 32.1041 7.52698 32.1488 7.3893C32.1935 7.25161 32.3125 7.15124 32.4557 7.13039L34.8286 6.78498L35.8902 4.63386C35.9542 4.50405 36.0864 4.42188 36.2312 4.42188ZM36.2312 5.6614L35.4222 7.30075C35.3668 7.41295 35.2598 7.49074 35.136 7.50876L33.3279 7.77194L34.6376 9.04743C34.7274 9.13485 34.7684 9.26089 34.7471 9.38437L34.4369 11.1854L36.054 10.3341C36.1649 10.2757 36.2974 10.2757 36.4083 10.3341L38.0264 11.186L37.7182 9.38394C37.6971 9.26069 37.738 9.13495 37.8275 9.04764L39.1352 7.77206L37.3263 7.50876C37.2025 7.49074 37.0955 7.41295 37.0401 7.30075L36.2312 5.6614Z" fill="#020617"/>
<path fill-rule="evenodd" clip-rule="evenodd" d="M50.0612 9.18896C50.2059 9.18896 50.3381 9.27114 50.4022 9.40094L51.4637 11.5521L53.8366 11.8975C53.9798 11.9183 54.0987 12.0186 54.1435 12.1562C54.1882 12.2939 54.1509 12.4449 54.0473 12.546L52.3315 14.2196L52.7359 16.5813C52.7603 16.7239 52.7017 16.868 52.5846 16.9531C52.4676 17.0381 52.3124 17.0494 52.1843 16.9821L50.0613 15.8672L47.9413 16.982C47.8132 17.0494 47.6579 17.0382 47.5408 16.9531C47.4237 16.8681 47.3651 16.7239 47.3895 16.5813L47.7938 14.2198L46.0752 12.5462C45.9715 12.4452 45.9342 12.2941 45.9788 12.1564C46.0235 12.0187 46.1425 11.9183 46.2858 11.8975L48.6587 11.5521L49.7202 9.40094C49.7842 9.27114 49.9164 9.18896 50.0612 9.18896ZM50.0612 10.4285L49.2522 12.0678C49.1968 12.18 49.0898 12.2578 48.966 12.2758L47.1579 12.539L48.4677 13.8145C48.5573 13.9018 48.5983 14.0277 48.5772 14.1511L48.2691 15.9504L49.8842 15.1011C49.9949 15.0429 50.1272 15.0429 50.238 15.101L51.8564 15.9509L51.5482 14.1511C51.5271 14.0278 51.568 13.9021 51.6575 13.8147L52.9652 12.5391L51.1564 12.2758C51.0326 12.2578 50.9255 12.18 50.8702 12.0678L50.0612 10.4285Z" fill="#020617"/>
<path fill-rule="evenodd" clip-rule="evenodd" d="M60.9065 18.0479C61.0513 18.0478 61.1836 18.13 61.2477 18.2598L62.3092 20.411L64.6821 20.7564C64.8253 20.7772 64.9443 20.8775 64.989 21.0151C65.0337 21.1527 64.9965 21.3038 64.8929 21.4048L63.177 23.0786L63.5814 25.4433C63.6058 25.5859 63.5471 25.7301 63.43 25.8151C63.3128 25.9001 63.1576 25.9113 63.0295 25.8438L60.9068 24.7264L58.7871 25.8438C58.6591 25.9113 58.5038 25.9002 58.3866 25.8152C58.2694 25.7302 58.2106 25.586 58.235 25.4433L58.6394 23.0786L56.9236 21.4048C56.82 21.3038 56.7827 21.1527 56.8275 21.0151C56.8722 20.8775 56.9911 20.7772 57.1343 20.7564L59.507 20.411L60.5655 18.2602C60.6295 18.1303 60.7617 18.0479 60.9065 18.0479ZM60.9072 19.2883L60.101 20.9264C60.0456 21.0388 59.9385 21.1167 59.8146 21.1347L58.0057 21.398L59.3134 22.6736C59.4029 22.7609 59.4438 22.8867 59.4227 23.0099L59.1146 24.8114L60.7294 23.9602C60.8403 23.9017 60.9729 23.9017 61.0838 23.9601L62.7019 24.8119L62.3937 23.0099C62.3727 22.8867 62.4135 22.7609 62.503 22.6736L63.8107 21.398L62.0019 21.1347C61.8781 21.1167 61.771 21.0389 61.7157 20.9267L60.9072 19.2883Z" fill="#020617"/>
<path fill-rule="evenodd" clip-rule="evenodd" d="M63.9763 32.3315C64.121 32.3315 64.2532 32.4136 64.3172 32.5433L65.3787 34.6916L67.7518 35.037C67.895 35.0579 68.014 35.1582 68.0587 35.2959C68.1034 35.4336 68.066 35.5847 67.9623 35.6857L66.2438 37.3592L66.651 39.7235C66.6756 39.8662 66.6169 40.0105 66.4998 40.0956C66.3826 40.1808 66.2273 40.192 66.0991 40.1245L63.9763 39.0069L61.8535 40.1245C61.7255 40.1919 61.5702 40.1808 61.4531 40.0958C61.3359 40.0108 61.2772 39.8666 61.3016 39.7239L61.706 37.3592L59.9902 35.6855C59.8866 35.5845 59.8493 35.4334 59.8941 35.2958C59.9388 35.1582 60.0577 35.0579 60.2009 35.037L62.5739 34.6916L63.6354 32.5433C63.6995 32.4136 63.8317 32.3315 63.9763 32.3315ZM63.9763 33.5702L63.1673 35.2075C63.1119 35.3197 63.0049 35.3974 62.8811 35.4154L61.0723 35.6787L62.38 36.9543C62.4695 37.0416 62.5104 37.1673 62.4893 37.2906L62.1811 39.0926L63.7992 38.2407C63.9101 38.1824 64.0426 38.1824 64.1535 38.2407L65.7706 39.0921L65.4604 37.291C65.4391 37.1675 65.4801 37.0415 65.5698 36.9541L66.8796 35.6786L65.0715 35.4154C64.9478 35.3974 64.8408 35.3197 64.7854 35.2075L63.9763 33.5702Z" fill="#020617"/>
<path fill-rule="evenodd" clip-rule="evenodd" d="M21.8353 9.18896C21.9801 9.18896 22.1123 9.27114 22.1763 9.40094L23.2379 11.5521L25.6108 11.8975C25.754 11.9183 25.873 12.0187 25.9177 12.1564C25.9624 12.2941 25.925 12.4452 25.8213 12.5462L24.1029 14.2196L24.51 16.5808C24.5346 16.7235 24.476 16.8678 24.359 16.9529C24.2419 17.0381 24.0867 17.0494 23.9585 16.9821L21.8353 15.8672L19.7122 16.9821C19.584 17.0494 19.4288 17.0381 19.3117 16.9529C19.1946 16.8678 19.1361 16.7235 19.1607 16.5808L19.5678 14.2196L17.8494 12.5462C17.7457 12.4452 17.7083 12.2941 17.753 12.1564C17.7977 12.0187 17.9167 11.9183 18.0599 11.8975L20.4328 11.5521L21.4944 9.40094C21.5584 9.27114 21.6906 9.18896 21.8353 9.18896ZM21.8353 10.4285L21.0264 12.0678C20.971 12.18 20.864 12.2578 20.7402 12.2758L18.9321 12.539L20.2418 13.8145C20.3316 13.902 20.3726 14.028 20.3513 14.1515L20.0411 15.9504L21.6586 15.101C21.7692 15.0429 21.9014 15.0429 22.0121 15.101L23.6296 15.9504L23.3194 14.1515C23.2981 14.028 23.3391 13.902 23.4289 13.8145L24.7386 12.539L22.9305 12.2758C22.8067 12.2578 22.6997 12.18 22.6443 12.0678L21.8353 10.4285Z" fill="#020617"/>
<path fill-rule="evenodd" clip-rule="evenodd" d="M10.8468 18.0479C10.9915 18.0479 11.1237 18.13 11.1878 18.2598L12.2493 20.411L14.6222 20.7564C14.7654 20.7772 14.8843 20.8775 14.929 21.0151C14.9738 21.1527 14.9365 21.3038 14.8329 21.4048L13.1171 23.0786L13.5215 25.4433C13.5459 25.5859 13.4872 25.7301 13.37 25.8151C13.2529 25.9001 13.0976 25.9113 12.9696 25.8438L10.8468 24.7263L8.72397 25.8438C8.59582 25.9113 8.44047 25.9001 8.32331 25.815C8.20615 25.7299 8.14752 25.5856 8.1721 25.4428L8.57925 23.0786L6.86082 21.4051C6.75711 21.3041 6.71975 21.153 6.76443 21.0153C6.80911 20.8776 6.92809 20.7772 7.07134 20.7564L9.44425 20.411L10.5058 18.2598C10.5698 18.13 10.702 18.0479 10.8468 18.0479ZM10.8468 19.2874L10.0378 20.9267C9.98242 21.0389 9.87539 21.1167 9.75157 21.1347L7.94353 21.3979L9.25325 22.6734C9.34302 22.7608 9.38396 22.8869 9.36269 23.0103L9.05253 24.8114L10.6696 23.9601C10.7805 23.9017 10.913 23.9017 11.0239 23.9601L12.642 24.8119L12.3338 23.0099C12.3127 22.8867 12.3536 22.7609 12.4431 22.6736L13.7508 21.398L11.942 21.1347C11.8181 21.1167 11.7111 21.0389 11.6557 20.9267L10.8468 19.2874Z" fill="#020617"/>
<path fill-rule="evenodd" clip-rule="evenodd" d="M60.9065 45.9302C61.0513 45.9301 61.1836 46.0123 61.2477 46.1422L62.3092 48.2933L64.6821 48.6387C64.8253 48.6595 64.9443 48.7598 64.989 48.8974C65.0337 49.0351 64.9965 49.1861 64.8929 49.2872L63.177 50.9609L63.5814 53.3256C63.6058 53.4683 63.5471 53.6124 63.43 53.6974C63.3128 53.7825 63.1576 53.7936 63.0295 53.7262L60.9068 52.6087L58.7871 53.7261C58.6591 53.7936 58.5038 53.7825 58.3866 53.6975C58.2694 53.6125 58.2106 53.4683 58.235 53.3256L58.6394 50.9609L56.9236 49.2872C56.82 49.1861 56.7827 49.0351 56.8275 48.8974C56.8722 48.7598 56.9911 48.6595 57.1343 48.6387L59.507 48.2933L60.5655 46.1425C60.6295 46.0126 60.7617 45.9303 60.9065 45.9302ZM60.9072 47.1706L60.101 48.8087C60.0456 48.9211 59.9385 48.999 59.8146 49.0171L58.0057 49.2804L59.3134 50.5559C59.4029 50.6433 59.4438 50.769 59.4227 50.8922L59.1146 52.6937L60.7294 51.8425C60.8403 51.7841 60.9729 51.784 61.0838 51.8424L62.7019 52.6943L62.3937 50.8922C62.3727 50.769 62.4135 50.6433 62.503 50.5559L63.8107 49.2804L62.0019 49.0171C61.8781 48.999 61.771 48.9213 61.7157 48.809L60.9072 47.1706Z" fill="#020617"/>
<path fill-rule="evenodd" clip-rule="evenodd" d="M10.8468 45.9302C10.9915 45.9302 11.1237 46.0124 11.1878 46.1422L12.2493 48.2933L14.6222 48.6387C14.7654 48.6595 14.8843 48.7598 14.929 48.8974C14.9738 49.0351 14.9365 49.1861 14.8329 49.2872L13.1171 50.9609L13.5215 53.3256C13.5459 53.4683 13.4872 53.6124 13.37 53.6974C13.2529 53.7825 13.0976 53.7936 12.9696 53.7262L10.8468 52.6086L8.72397 53.7262C8.59582 53.7936 8.44047 53.7825 8.32331 53.6973C8.20615 53.6122 8.14752 53.4679 8.1721 53.3252L8.57925 50.9609L6.86082 49.2874C6.75711 49.1864 6.71975 49.0353 6.76443 48.8976C6.80911 48.7599 6.92809 48.6595 7.07134 48.6387L9.44425 48.2933L10.5058 46.1422C10.5698 46.0124 10.702 45.9302 10.8468 45.9302ZM10.8468 47.1697L10.0378 48.809C9.98242 48.9213 9.87539 48.999 9.75157 49.0171L7.94353 49.2802L9.25325 50.5557C9.34302 50.6431 9.38396 50.7692 9.36269 50.8927L9.05253 52.6938L10.6696 51.8424C10.7805 51.784 10.913 51.784 11.0239 51.8424L12.642 52.6943L12.3338 50.8922C12.3127 50.769 12.3536 50.6433 12.4431 50.5559L13.7508 49.2804L11.942 49.0171C11.8181 48.999 11.7111 48.9213 11.6557 48.809L10.8468 47.1697Z" fill="#020617"/>
<path fill-rule="evenodd" clip-rule="evenodd" d="M8.02358 32.3315C8.16825 32.3315 8.3004 32.4136 8.36448 32.5433L9.42597 34.6916L11.799 35.037C11.9422 35.0579 12.0611 35.1582 12.1059 35.2958C12.1506 35.4334 12.1133 35.5845 12.0097 35.6855L10.2939 37.3592L10.6983 39.7239C10.7227 39.8666 10.664 40.0108 10.5469 40.0958C10.4297 40.1808 10.2745 40.1919 10.1464 40.1245L8.02358 39.0069L5.90079 40.1245C5.77264 40.192 5.61729 40.1808 5.50013 40.0956C5.38297 40.0105 5.32434 39.8662 5.34892 39.7235L5.75607 37.3592L4.03764 35.6857C3.93393 35.5847 3.89657 35.4336 3.94125 35.2959C3.98593 35.1582 4.10491 35.0579 4.24816 35.037L6.62119 34.6916L7.68268 32.5433C7.74677 32.4136 7.87891 32.3315 8.02358 32.3315ZM8.02358 33.5702L7.21452 35.2075C7.15912 35.3197 7.05214 35.3974 6.92839 35.4154L5.12034 35.6786L6.43007 36.9541C6.51984 37.0415 6.56078 37.1675 6.53951 37.291L6.22935 39.0921L7.84644 38.2407C7.95732 38.1824 8.08984 38.1824 8.20072 38.2407L9.8188 39.0926L9.51062 37.2906C9.48954 37.1673 9.5304 37.0416 9.61991 36.9543L10.9276 35.6787L9.11877 35.4154C8.99502 35.3974 8.88804 35.3197 8.83264 35.2075L8.02358 33.5702Z" fill="#020617"/>
<path fill-rule="evenodd" clip-rule="evenodd" d="M52.4585 57.5576C52.6032 57.5576 52.7354 57.6398 52.7994 57.7696L53.861 59.9207L56.2339 60.2661C56.3771 60.287 56.496 60.3873 56.5407 60.5249C56.5855 60.6625 56.5482 60.8136 56.4446 60.9146L54.7288 62.5883L55.1332 64.9499C55.1576 65.0925 55.099 65.2367 54.9819 65.3217C54.8649 65.4068 54.7097 65.418 54.5816 65.3508L52.4586 64.2359L50.3385 65.3507C50.2104 65.418 50.0552 65.4068 49.9381 65.3218C49.821 65.2367 49.7623 65.0926 49.7868 64.9499L50.1911 62.5885L48.4725 60.9148C48.3688 60.8138 48.3314 60.6627 48.3761 60.525C48.4208 60.3874 48.5398 60.287 48.683 60.2661L51.0559 59.9207L52.1175 57.7696C52.1815 57.6398 52.3137 57.5576 52.4585 57.5576ZM52.4585 58.7971L51.6495 60.4365C51.5941 60.5487 51.4871 60.6265 51.3633 60.6445L49.5552 60.9077L50.8649 62.1832C50.9546 62.2705 50.9956 62.3964 50.9744 62.5198L50.6664 64.3191L52.2815 63.4698C52.3922 63.4116 52.5245 63.4115 52.6352 63.4697L54.2537 64.3196L53.9455 62.5198C53.9244 62.3965 53.9653 62.2707 54.0548 62.1834L55.3625 60.9078L53.5536 60.6445C53.4298 60.6265 53.3228 60.5487 53.2674 60.4365L52.4585 58.7971Z" fill="#020617"/>
<path fill-rule="evenodd" clip-rule="evenodd" d="M19.3316 57.5576C19.4763 57.5576 19.6085 57.6398 19.6726 57.7696L20.7341 59.9207L23.107 60.2661C23.2502 60.287 23.3692 60.3874 23.4139 60.525C23.4586 60.6627 23.4212 60.8138 23.3175 60.9148L21.5991 62.5883L22.0062 64.9495C22.0308 65.0922 21.9723 65.2364 21.8552 65.3216C21.7381 65.4067 21.5829 65.4181 21.4547 65.3508L19.3316 64.2358L17.2084 65.3508C17.0803 65.418 16.9251 65.4068 16.8081 65.3217C16.6911 65.2367 16.6324 65.0925 16.6568 64.9499L17.0612 62.5883L15.3454 60.9146C15.2418 60.8136 15.2046 60.6625 15.2493 60.5249C15.294 60.3873 15.413 60.287 15.5561 60.2661L17.9291 59.9207L18.9906 57.7696C19.0546 57.6398 19.1868 57.5576 19.3316 57.5576ZM19.3316 58.7971L18.5226 60.4365C18.4672 60.5487 18.3602 60.6265 18.2364 60.6445L16.4275 60.9078L17.7352 62.1834C17.8248 62.2707 17.8656 62.3965 17.8445 62.5198L17.5363 64.3196L19.1548 63.4697C19.2655 63.4116 19.3977 63.4116 19.5084 63.4697L21.1258 64.3191L20.8156 62.5202C20.7944 62.3967 20.8353 62.2706 20.9251 62.1832L22.2348 60.9077L20.4268 60.6445C20.3029 60.6265 20.1959 60.5487 20.1405 60.4365L19.3316 58.7971Z" fill="#020617"/>
<path fill-rule="evenodd" clip-rule="evenodd" d="M36.2312 59.7388C36.3759 59.7388 36.5081 59.8209 36.5722 59.9507L37.6337 62.1019L40.0066 62.4473C40.1498 62.4681 40.2687 62.5684 40.3134 62.706C40.3582 62.8437 40.3209 62.9947 40.2173 63.0958L38.5015 64.7695L38.9059 67.1342C38.9303 67.2769 38.8716 67.421 38.7544 67.506C38.6373 67.5911 38.482 67.6022 38.3539 67.5348L36.2312 66.4172L34.1084 67.5348C33.9802 67.6022 33.8249 67.591 33.7077 67.5059C33.5906 67.4208 33.5319 67.2765 33.5565 67.1338L33.9636 64.7695L32.2452 63.096C32.1415 62.995 32.1041 62.8439 32.1488 62.7062C32.1935 62.5685 32.3125 62.4681 32.4557 62.4473L34.8286 62.1019L35.8902 59.9507C35.9542 59.8209 36.0864 59.7388 36.2312 59.7388ZM36.2312 60.9783L35.4222 62.6176C35.3668 62.7298 35.2598 62.8076 35.136 62.8257L33.3279 63.0888L34.6376 64.3643C34.7274 64.4517 34.7684 64.5778 34.7471 64.7013L34.4369 66.5023L36.054 65.651C36.1649 65.5926 36.2974 65.5926 36.4083 65.651L38.0264 66.5029L37.7182 64.7008C37.6971 64.5776 37.738 64.4518 37.8275 64.3645L39.1352 63.089L37.3263 62.8257C37.2025 62.8076 37.0955 62.7298 37.0401 62.6176L36.2312 60.9783Z" fill="#020617"/>
<path fill-rule="evenodd" clip-rule="evenodd" d="M22.894 22.2465C22.894 22.0365 23.0643 21.8662 23.2743 21.8662H49.1911C49.4011 21.8662 49.5713 22.0365 49.5713 22.2465V37.5793C49.5713 42.4256 47.2707 47.0704 43.4162 50.0081L43.4161 50.0082L36.4615 55.3047C36.3254 55.4084 36.1368 55.4083 36.0007 55.3046L29.0492 50.0081L29.0492 50.0081C25.1946 47.0704 22.894 42.4256 22.894 37.5793V22.2465ZM23.6545 22.6267V37.5793C23.6545 42.1883 25.8443 46.6093 29.5102 49.4032L36.2312 54.5242L42.9552 49.4032C42.9552 49.4032 42.9553 49.4032 42.9553 49.4031C46.6211 46.6093 48.8108 42.1882 48.8108 37.5793V22.6267H23.6545Z" fill="#020617"/>
<path fill-rule="evenodd" clip-rule="evenodd" d="M36.2312 29.7273C32.754 29.7273 29.9337 32.5476 29.9337 36.0247C29.9337 39.5051 32.7541 42.3252 36.2312 42.3252C39.7114 42.3252 42.5317 39.505 42.5317 36.0247C42.5317 32.5477 39.7115 29.7273 36.2312 29.7273ZM29.1732 36.0247C29.1732 32.1276 32.334 28.9668 36.2312 28.9668C40.1313 28.9668 43.2922 32.1274 43.2922 36.0247C43.2922 39.925 40.1314 43.0857 36.2312 43.0857C32.3339 43.0857 29.1732 39.9249 29.1732 36.0247Z" fill="#020617"/>
<path fill-rule="evenodd" clip-rule="evenodd" d="M39.1528 33.9122C39.3013 34.0607 39.3013 34.3014 39.1528 34.4499L35.4657 38.1371C35.3943 38.2084 35.2975 38.2485 35.1966 38.2485C35.0957 38.2484 34.9989 38.2083 34.9277 38.1368L33.3122 36.5184C33.1639 36.3697 33.1641 36.129 33.3127 35.9806C33.4614 35.8323 33.7021 35.8325 33.8505 35.9811L35.197 37.3302L38.6151 33.9122C38.7636 33.7637 39.0044 33.7637 39.1528 33.9122Z" fill="#F9F9F9"/>
</svg>
